<mxfile host="app.diagrams.net" modified="2023-06-08T08:11:32.784Z" agent="Mozilla/5.0 (Windows NT 10.0; Win64; x64) AppleWebKit/537.36 (KHTML, like Gecko) Chrome/114.0.0.0 Safari/537.36" etag="BGMHmqwgqyd1BGqF8I-V" version="21.3.7" type="github">
  <diagram name="Page-1" id="LgioKB303jOt2mOnLSNj">
    <mxGraphModel dx="1050" dy="530" grid="1" gridSize="10" guides="1" tooltips="1" connect="1" arrows="1" fold="1" page="1" pageScale="1" pageWidth="681" pageHeight="519" math="0" shadow="0">
      <root>
        <mxCell id="0" />
        <mxCell id="1" parent="0" />
        <mxCell id="VVp5pExmb6sLRWtHkBHy-1" value="" style="shape=image;verticalLabelPosition=bottom;labelBackgroundColor=default;verticalAlign=top;aspect=fixed;imageAspect=0;image=data:image/png,iVBORw0KGgoAAAANSUhEUgAAAW0AAAElCAIAAACgaCR0AAAAAXNSR0IArs4c6QAAAAlwSFlzAAAOxAAADsQBlSsOGwAAJ4hJREFUeF7tnQl8FEXa/8t3TbK+vq8HHrjKkWMSCCCHECDLEc4cuCG7Gi5BAhIWEyQKASUIElxMAAkI0QRkkENZAvL3FaIhCWc4DOdyCAkkkwNQd8Vr9WX3XQL74V99zExPT8+Vysz0TP/G+siku+qp5/lW9W+qqme67rpz5w7BCwRAAAQYCPwHQ1kUBQEQAAGOAHQE/QAEQICVAHSElSDKgwAIQEfQB0AABFgJQEdYCaI8CIDAXc27X1NXV3fjxg3gAwEQ8G8CTU1NUVFRjmOkOuLqKycnx7Fd5AABEPALAsePH3coES6PR3Jzc+fNm7do0aKkpCS/oIQgQAAEFAikpKScO3eOnjh79my3bt0cMHKoNNIMwkiE/t+lUsgMAiDgWwRiY2PplZ6YMEzQEYfOu7DOKoxEqIhkZWVBwEEABPyVQFxcXHl5+awZU1NTxjoZo7M6AhFxEiiygYBPEzCJyLQXxjsfiFM6AhFxHihygoDvEmieiNB4HesIRMR3uwU8BwHnCTRbRBzrCETE+WZAThDwXQJ2ROSbb75p5F92orM3HoGI+G63gOcg4DwBlpGIUItNHYGION8MyAkCvkuAXURo7MrfQ5s9e3ZeXl5CQsKkSZN8FxA8BwEQsE9g1apVX3zxBb3Fq3h35tJlQ9LY1JKSksjISGonODjYljUFHTlx4kSfPn3QACAAAlogMPG5Z1+fM0MxUiYdoV+G7d69+9aNBRHhYVrg6MkYrX4VKX2o5R1i8xGXshNKf5qPWdoUwlO2bDzK/Wu7CoWzUmZ2fLOOSMzM/+MoXuWIjK7a8UpaidlTCyyWTkv+koOSZXTUEDZ9lgGWem8XoMl/hRaUNp+sBa3jU+gVtQ1fT8hY+s7ShQmxg92lI6ePlnV7spMnrzEt1OWKjlg1vOPrylozFLqawkXjso5IbbSIjigZcRyv9bUlCpSSdkpRyB5KLEOicMmJnVP+MGMrt+34bJHXSkeUC1q3lZJv4jE7biurzPnq+j6JGS2iI46/P6KFyxsxggAIsBCAjrDQQ1kQAAGOAHQE/QAEQICVAHSElSDKgwAIQEfQB0AABFgJQEdYCaI8CIAAdAR9AARAgJUAdISVIMqDAAhAR9AHQAAEWAlAR1gJojwIgAB0BH0ABECAlQB0hJUgyoMACEBH0AcUCVzNT+gU+HB2qS08+xYFPtIlfR/ogQBHADqimn5Q/8HAB4IDjGlg4RWTZ4bC5IAHQgMe5FLaHvsOX1kdFx7QaoHN61814cIRfyIAHVFZa07acOvvjdW5T1VmDRKkpPSVkMisv6R+XH/rJ5o+IKNfh0aorM3gDsYjquwDurjfRRNSebmB1G/I2UjIpA8KhwuODir86a14ic+lM8MCHtRxaWYFIXQwMjTzJD1dlNgqnD9CyN4FAa0iAh7iUtpeoeSh9Ic6xKw5lB/fMfAhLqWLxwmp3xzzcGQgTQkfVEvJ7MsOfKSzkJTmMofTH30yUEwT8xuEkkfSH+0W8/6R/Ke7BbbmUvp+o8WGLTGtuwe17hH0WI/ppoOqbAg45SQBjEecBOWdbIayzyoJie4Qolz9nvmJG0nqdsOtnwzF5L3VDe0zyvblRdG8Y4t/rL21MoY0bBr4tq76x5pbP+yhx/Vj3jCNZSpfLyCFl5p+KOOO5202cBUcTu+dWxmVVfV9dVMm0XN6xL/qP4zJC6v67mLTd7u5zGNliyZURNL1vV6ruv5l0/XP83qdzezzprmWBevIu+eavi3O60Vr2cLXciS979vHnn/35rdnqt7sqn8uJb/RO2xRawsSgI60IMwWMyXIR+rTgwSLnXXt7ZjWl3DjjviV2zOs1SYk5VBZio4r3D6Ce7hdTY04WCAkJX0Gl799OD1+so67wvfu1VPNShrE5R/2Aq9H/Cv0+YqS53kj7cK5x/3W1tZL3Nl3gC81UMgwIzOZkB27TOuvz0/la+ELnqrnatl/kOZPHdGfvg2LjetLzu8ov9Zi4GDISwSgI14Cb6vajZPpUiu/INJgnMvY9nD44uJJhGycws1r4jbyn/byV+nMCGFek7jJqUg769opGMkUJzUjN8tPGgy19JCs1EXDVVuVGQw19JR+HD+voQMTp5xCJrUTgI6orIX4dVaaBBERFkr0nx+05WX8yjo6qanOeYqcXPzCGvMtHiG/Yc0YKh+p2+m8pqY4xalIrSXAsHY8lY/UIjqvubhrotyIThdOD8lKKYqRtGTq1rN0XnPzb1yq+GNbpzxDJhUTgI6ouHGoa6FDknvTEccLxtu9V1bHmu/XGApHCfd0dLoIYxjC/OWyef4inrhSU+Uo0mHDUuni7s6D/BznA369Vva6Wmux+sqfHTqYL3WIHw1dzc/bQUjyyKE269INj+OUseSII29w3pcIQEdU3lrtM8ob6ORFP0r4/sjg6jnm+zW6tOmd5w3hJjWji0jK+kMvcsso8RmvR5MzmT25+zW6F5dxK6Oj6bxmeHWnMY5CHVBQNJqczO1E79fkhe1a3EPIr5uWyy+v0qlNQnXkKCsjAwqOvxZ9amkn7n7N05mnknddf0N6R0meP2R8xdZk8uFLwv2aoMewzuqoWXzhvMI+WML+Ndh3wh3Nh30nBKri9hCOd5aQZDe3h2lzCew7YaZpuUGOJRn5viLiWew74Y5rHDZBAASaSQDzmmaCQzEQAAETAegIOgMIgAArAegIK0GUBwEQgI6gD4AACLASgI6wEkR5EAAB6Aj6AAiAACsB6AgrQZQHARCAjqAPgAAIsBKAjrASRHkQAAHoCPoACIAAKwHoCCtBlAcBEICOoA+AAAiwEoCOsBJEeRAAAegI+gAIgAArAegIK0GUBwEQgI6gD4AACLASgI6wEkR5EAAB6Aj6AAiAACsB6AgrQZQHARCAjqAPgAAIsBKAjrASRHkQAAHoCPoACIAAKwHoCCtBlAcBEICOoA+AAAiwEoCOsBJEeRAAAegI+gAIgAArAegIK0GUBwEQ8Nt9wuvqG2/8459qa2BX9gmX+i7bEFvpT+U9t41HrXfU5sxLz9quQr7LtAyqHd/umGowlhEzW+0TrmTT8S7iylEZK7XnmPU+2qIHcpOyjI4awqbPltt48y7aaBtpFZL3CrGKh5pu3urVrYN39wn3Tx1Zkvfu/EVL1SYi8AcE3ETg0CerorpFSIxb66SCPJ2vru+TmPHO0oUJsYMVHbt02ZA0NrWkpCQyMpJmCA4OtuW/H+qIICKLFi1KSkpyU7PBLAiogUBKSsq5c+eoJ8c/K+gaGQIdabFGEUQkJycnKyurxYzCEAioj0BcXFx5eXliwrDi3Xu9riN+tc4KEVFfb4dHbiEgiMisGVNTU8a6pQIXjfqPjkBEXGx6ZPdVAiYRmfbCeJXE4Cc6AhFRSX+CG+4moEIRoSH7g45ARNzdd2FfJQRsici3N3711c93C8krrvq8jkBEvNJvUKnnCahzJCJw8G0dgYh4vjejRq8QULOIUCA+/P2ROa//aWX++wkJCZMmTfJK06JSEPAMgVWrVn3xxRf07oz1wqrwVbFdRWsjI0IFZ9rcf1v25VmLb89yWcTvpOF7aOTEqTO/HTLSM62IWkDA6wQmPvfs63NmWLsBHWFqmnNfVvXsF7d1Y0FEeBiTIV8uLPm1julbz9Y/aTF//vCxSnKa/1I8aEKj+DMcO7/NEQoq/U7kjvwg/zsTxZ/JmAKxLCL9gY7cQcsoRCesDlrUJv0Bi0JxiW+Kv8gx/UxG8Ucxij+gsQtTToPLXNvw9YSMpba+vQ4dYbqCBR05fbSs25OdmAz5cmFHOuK8ZCjnlF8HpqtGKhMWByXyYSUZfCH7OuJQMqzFhS8iFxez4xJZdf4CdiQutD5JjWYPbLshl2/RZ/vKJWayP/tQiY749jqrL4sAfAcB/yEAHfGftkQkIOAtAtARb5FHvSDgPwSgI/7TlogEBLxFADriLfKoFwT8hwB0xH/aEpGAgLcIQEe8RR71goD/EICO+E9bIhIQ8BYB6Ii3yKNeEPAfAtAR/2lLRAIC3iIAHfEWeU/Uayh8dmDhFbGmhg0DH0xe3eBSvVfy4zsEPtRRTA8vLHW+dMNHMY8+n+9adc5bdzlnnX7aIP1XLhdDAecIQEec4+QHuUImH/ppR4Z0cwLngkrddqnpBz59vyjeuSJcrpAJFdc/nOF6dc7XgJzqIQAd8UxbNK4e1jatnJC69QOGrTcIddL397W9m0/cKUIMBb+/23h298ttBxQ0KmYzHQy4v13A/Vn8GOFAmviGkPoPBj4wjx4sfSUkMusvlVmDAh4ITdtD8xxMM41HGjYOfFAXQFMrXdpewZuKtFYLSvcuCGgVEfBQhPGgIpzD6XRgsjc78OFONKXv4/KUZnaOWXtVzF3/Ycwji0rJ4XRxPHI1f8TE/LVvBj7aNXD2ES5Pw5aY1t0CW3enafp+odDR6Y8tLt3/VtBjT9FkPvibt0r35wT9phdNMe9fI/tzgx6PosmYgZoqinm8T9ATXDIerJz+xNLS/UuDnogOahM9/QBnvey133bOvnAse8yv2/QTj8ztz71p/HhQ27fLPNMF/LoW6IhHmrd8zSySnRnbuHpadpdXp+iEK79Hdpcd127/cu32mewLyXN3E6JLf2cFyZ5M5aN8buKG8fPSgxWzmQ7e+vnqrR0kR5Abq1f8Ow3VuU9F5x689ff6wuHS0wfTnvpT5+2GWz8Zbm0fqx893zhbKUr8fPitH2tubRujH7PA7hRm+8iSoU3fVzUVjdaPzaY540eMqtxZIeijYU9Z5cQhliOXs5k7Q6uun29a3p+QI+l9l3Xeeq7p27NNW5P14xYbK/p/Sbtjbv7tLzf//Kz+ubeMBz9JWhlS9ddTN7c8c2zhH4Johm9O3vzoGf07RXVcVZXT+63s8tHxm18fv3l05oXnlxpLfZpUNvDm15U3P/z9+ueXUZmIW/rFxewufbO3/euro+/xW8fFvZhxceKysuBR67Prc9d/7ZFO4M+VQEc80LoH0pIvrVg7hRS8Mqvz5sJYvsbysnW9qbLw78OGjuq9ZRc3JAnOeHV85dxXBizbMnXHkgRb2aRlh+ce4uTGldeevfqoBZmCsgybmhdVtFMckvTIyxjIHxyeSmpqjEsb+jHi+kjMGuNSC+mR99IAPufQVFJbW0/I0KGpJ0t30zfk6u6dZ1NH8Gclr9TMCbx6ErL/gL7Xq7OG8O+HpCzvtaNYHJJ0XT6dqgw9GMPZbBRyd12+ehz3gBnuYNfl6b/ljoUE9z3VUMuZOqjvNVM0Fdw/uef/GE09uTwtmss5eOAUYjCasnQoeDRVkKS5x8KmpHTOXvyuWJ3Ma/zpLAHoiLOkWj7fieyO4rxmwKwTRvOxL67ofbqSG7wYjyhmY/DGYLhMOgeLVzVpH9GJXDSYBELBrml9pOLF9rarHTBy4tkde66S+oodJ0eNHGozo8FgIJHtjbW3DY8kFwzXmh/NqZWdxHnNs7NPN98MSjISgI4wAnSm+ODCHR1nTVtP6LTl4kRhKYR79c6+RCc1xmQcp9AZ0PipwuzGTjZnqrWRR6frQC42ims05EpNFemssyMQztYkTG1KFSY1FhZ0Oh2pvmKs/VptNemia+tsHdb5es2s+oaf13Dp2HvCMMeZV+P2KdmhO5f0rVu/6WL2/JeCnSmDPDYJQEc80jnoKINk55UHZ6zNvrCMX2eNjZt6gh6R1U5nQFumvrqkkJvdrKErJsrZpGX3ZA0UFefPO7nFVFK6+s1KidXKy1a3XocPSz35pzw+M9m7LvPk2KRhLQGBn9rkKk1qLKwPGZx6atkKYS6zf9PsU8mJzl/8MjeHDEo9tVI05UQEx2rN933L1qzuvPnVuMaPqZpkTXnCidLIYo8AdMQz/SM4Y+81bsQRNuXwXmGddXAht7wq3q+5+z5undVQsGrdZH4BJXZJ8eQtiS/TOwoK2UwHufs1yYRfjqVDnuf0ye0D7g/e+fSGVGNMurjfRW+cbLxfY4p0UOH2cfrR/P2a0TV5pxfbv5trWh8JfHhcPrcCYuvFTW0q7U5q+JL9C7jlVf5+zbia5cfmu3AvWV5z9Ht0eXWCeL8miN6mse1c2LChfbdkmu7XxC05wi24Bo86eG1OnGe6gF/X4qv7TuD5rLRb4vms4nNP8XxWb+87gfGIX39MIDgQ8AgB6IhHMKMSEPBrAtARv25eBAcCHiEAHfEIZlQCAn5NADri182L4EDAIwSgIx7BjEpAwK8JQEf8unkRHAh4hAB0xCOYUQkI+DUB6IhfN6/LwV1ZHRcREL/JQK6s5p6E9obkG6KH0h/uGJiw2UAfLPJwJP/wEe6JAcYXfchI58BHaJpg9zuvLjuEAj5BADriE83keSfbj/h9D0K27RIfKUCfGNR4kZDopEHiT3WjekST7blrTM8uoj/z7R4d5Xk/UaMqCEBHVNEMKnRCF5dAn+GhLzkk+GYo211JeiTHthNdjYxPjiKSZxeVVkbFJ0eqMA645AkC0BFPUPbJOkIGUaUgm/byk5cruz89Q6ISEkJNoQQnJPUg4rOLDq+YfzY6KSbcJ+OE0y1AADrSAhD91ET7BPPU5kr1SUIiTU8/4iLWxcZHkzPcs4v27dOT7snDjUMVP8WBsOwQgI6ge9gkYJ7a7KVKQVJH8E9dNL1CY4SpTX7Jx4SEh5uHKkCqOQLQEc01uQsBi1Obfekl2wgZM1L+uKN29KmI5GRu5mZCJg5leIyICx4hqzoJQEfU2S7e8oqfv5hf4tRGv4mQFAWliB8xWshr/WBnbwWAer1CADriFewqrJTuXxMe0CpVT58FX5hifA4zEaY2vFJYTmqECLjnxdOXvQc7qzBUuNTiBKAjLY7URw3GFP5Yy21e8+M2iz33QlIq+M30CsyTmgEF31c3rRB2lhhQ8F1V03fZwqQmPu9i03cfzcBCiY92AQa3oSMM8FAUBECAJwAdQUcAARBgJQAdYSWI8iAAAtAR9AEQAAFWAtARVoIoDwIgAB1BHwABEGAlAB1hJYjyIAAC0BH0ARAAAVYC0BFWgigPAiAAHUEfAAEQYCUAHWEliPIgAALQEfQBEAABVgLQEVaCKA8CIAAdQR8AARBgJQAdYSWI8iAAAtAR9AEQAAFWAtARVoIoDwIgcNedO3dkFM6dO9e9e/fTR8u6PdlJtYDOfVnVs1+cyp2sq2+88Y9/uo+hpO1MjXiHyNuT1i89JMlpPqN40OS48Sz3r2VO8YBClcqVWnQ2ozmrHshXbArE0nnxL8sa5QfNZyU4pFFYhcZVaBUaIf997z0h7R4X/TE3pIVvfDHz/xwhsgvTwg3R7Pnq+j6JGe8sXZgQO9i6L126bEgam7qraG1khPgcujb337aEL/yl0AfsW6ZlBOMlJSWRkdwWZ8HBwbY6M3TEXZc5FZEO3YWHD+LlwwSqDm0Jbf+E/DqUKBd0hLYudMRdXVwYMW3dWBARHuauOppr1ziQEa4G2RDGeNB8yjqbcO3IBkHWn3jSbMJnomVdogWTfYkF80eosaDix76FBZNLFqMDyR+S0KRDGMu6jHHdqW34ekLG0hO79V070ede2xwWQUegI829EJ0op+aZlw0dkV/2RomR6ohw4drRESsjkkvdqCOmsb1MsxSFib/KpXph671Z2ix8EB22IRbGaKQSI74Xhv3QEWfmNVhndUISkAUEQMAuAegIOggI2CPw7S/kq5+4hJcdAtARdA8QAAFWAtARVoIor1oC//evm+er6sRUXXfeItXT5Q9ZovlVG4vKHYOOqLyB4F7zCdTWf9V7xB/7cGkan17kUxqXnhZSOpd+R9N0mugNmuZXpu2S0BFtt78Goqe33un3Fe0nmkcDJNwYInTEjXBh2vME+LmMgU91NfXXeAfuMrkRoQul39K2Tir8jo/n0bHUCB1hoYeyqiNQW3+td8JULo2YOuGlN6l/4yal0S8ECqnGUK86j/3CIeiIXzQjgrAkYD2XwczFrX0EOuJWvDDuHQJ0niKbvGDm4taWgI64FS+Mg4AmCEBHNNHMCBIE3EoAOuJWvDDuHQI1tXX0d5LSRI94xxVt1Aod8f12Lp97931t08oJMb3x/ZiMEVROfyI66LVKVwMaNynddI9GeEOPuGoE+Z0nAB1xnpWbch5Iu68tFYIBBY2MFRgMl3gLjauHUYNzd5vN8VUMW29wrYIrq2N1Aa3ml7pWipB9iwIffZJPXdP3CYWv5j/dPbD1YpdNuVo1IeGhbU/sXselknUfvfsGNbB1Y6HpS2j0+yOum0QJxwSgI44ZuTdHedk6voLKT/a5eJ3L/dKlf3r7l2uFscEjnulJyJZddIQivOrqLxAS/cxQ+jQet7/qP4wZ+zGZWNB0/cum6wVk3Jse0A63B4UKHBGAjjgi5Obzuz/fQnpnFy/pSU4Ul4hTeG74MKDgAD+s4BI3Z+Feto4bXTTOa3RxidGErPv8gHDCUFZcSXqOigvmNWX9gPvaBtzfjqa0PUazDwQPLDywOjYk4IGQgAdD+eN0MDIk8yR9U5TYKjxgZgWXtWHTwIc6BHKpY/pesdLSWZGBD3cKfKRTYOZhPk89nYREh7fnT/cvuP5GPDcYScw8Rf/ckdS6R9Cco/ypI9MfeyroNz359EJ+gzGEhqKYx3sHPd4n6IklMgGq0//x1236DdJ/Zb9B8D00N3dYZfPQEa9gN1V6YNcGbqSQwF35pz8uazSdqJw7sfrVa7d/ObyiN1mXbJ6k2DpuEUbY0FG9CdlQxk9tGks+OU16J47gnu54IK1HduXkzbd+vlqd21Of/Mxq49c7K7PyyZqGW38/mBdF9G9vMJD2GeX76XtCxhb/WHtrZQwhh9J6vVWZsq7ph8tVb/XQjxmXT8vuXThyM0ktqmr6rmoXWcMdCQmlEla54OnA2byscK92Mz4vzutF3yTv/PbMzbf78SKSoe81u+qvp2/+9dPlvc7P/m0OrxqV0/utODZh1c1vjt/8kOSuk0hG47Yp2RfI+LyDqW2caTB8D80ZSi2YBzrSgjBdN8VNaviRAn/lW0xtJm8ujKUGrSYpto5bVC4t1VB9gpDOodykhp9DTX2ae+y4Lp5Trh2lRuWaNCODWzpoH9GZkJMGhRnW3j16QlJHDOTKxiVEkzM7yq8KdepLOMmIz9syg1oIfb6iaBR3dHM6XR8JnH1EAcr+Cmqq78gB/HNr286Y+QwhnxTvJ2T/Qa6KeCpEhAyZWzHVJBmHpvdfdaznyxeX9nUSMb6H5iSolsoGHWkpks2xw09qhJECf+WfyM4zLWo0x565jHlqI9EOYSF2XTI/r6EDE1eqMBhqOMkYw89reuWIZYct2jWRSsY0bl4z4kNRfYYuFBZHUnk1iXlflBtTbXWGWvq+i66ttP4Lhq/q6mwsEH306XpXXEVezxOAjnieubHGuvU5GwjVjo78IkjHuae5i9y4qMHqlnFqk0aliowfyQ1txNfUHdfovIZPVw6lB7tUUeq2y3Re0/TDJZoqXmxHy8avqG76vqpqcQ9ycsmUtVLJGFCwNVnReJgunB6/YBB+jCu+uujahIXZWAiesOJidhdyetUUR4sjLsWCzC1IADrSgjBdM8UvfxJ6VdObLHzaPJUaEBc16JuJ/PIqv7ohFQJbx+WVi1ObdVSqJscl8Gdl66+O3OXnOKSmhl8E1cWNoPMNfckhaSnDmudi1nDaoeOlgb4MayfEGNWkdPcOQronD6dy0y6c20epplZYTx0SQ4cqx3Yd5peVr+Wv/ISQZxKH0LWVEDpv0ZfyY53GoumS9ZGw1DeW9yTHsv/0bqMjr/nz+B6aU5haLhN0pOVYumbJSiDI4JGTqQnj/drJ2ZHL6DhlwKwTPVecWSIIAfeyddyqdkE16EtYEOFeYVMO7xhPFUq4XxNwv3mdVdH3+Iz50eQvmT35+zUhKYe2jSGbpgr3awIf4tZZdS+mdZ4fx92vGbudTFxTMa2dblpO8s4RwvdHRm7unnd884wQznb89DnR5PzsvsL9mv7vHZvd99TyTtzNmt/PPvXMzr/Oi6eZQsZWfPQH8tHL3P2afo2J5vUReq7NS6te7ksuzH55uzPfS8X30FzrjMy5sQ8WM0IbBhj2r6H3dyeum7z59irZPoy2jrscgh/vX0OfY1Rbz0+v7hD6HCP6CBL6PbSIcPHrZ/R7aPfc82trXkJjHf/s3a6RoaZ9sIT9a4q36SM7cPtgtXnQVA77csoRYjzi8kWIAmomcM+vg+j2d3wKiwjllnKpiJieIaAoImoOx1d8g474SkvBz2YSsF4rkf2Ej/6JX/E1E66xGHSEEaA7ig8upMuu8kkNrcjWcXf44D82rddKZD/hw6/42BsbOsLOEBZUSiA8tM2JkvePc2ktn9bwqZBLnwupgEuf0fQeTeEhT6g0EtW7BR1RfRPBweYS4NdKwsQUGdbVIoXSJVVZovmbW5XWy0FHtN4DED8IsBOAjrAzhAUQ0DoB6IjWewDiBwF2AtARdoawAAJaJwAd0XoPQPwgwE4AOsLOEBZAQOsEoCNa7wGIHwTYCUBH2BnCAghonQB0ROs9APGDADsB6Ag7Q1gAAa0TgI5ovQcgfhBgJwAdYWcICyCgdQLQEa33AMQPAuwEoCPsDGEBBLROADqi9R6A+EGAnQB0hJ0hLICA1glAR7TeAxA/CLATgI6wM4QFENA6AeiI1nsA4gcBdgLQEXaGsAACWicAHdF6D0D8IMBOADrCzhAWQEDrBKAjWu8BiB8E2AlAR9gZwgIIaJ0AdETrPQDxgwA7AegIO0NYAAGtE4COaL0HIH4QYCcAHWFnCAsgoHUC0BGt9wDEDwLsBKAj7AxhAQS0TgA6ovUegPhBgJ0AdISdISyAgNYJQEe03gMQPwiwE4COsDOEBRDQOgHoiNZ7AOIHAXYC0BF2hrAAAlonAB3Reg9A/CDATgA6ws4QFkBA6wSgI1rvAYgfBNgJQEfYGcICCGidAHRE6z0A8YMAOwHoCDtDWAABrROAjmi9ByB+EGAnAB1hZwgLIKB1AtARrfcAxA8C7ASgI+wMYQEEtE4AOqL1HoD4QYCdAHSEnSEsgIDWCdx1584dGYNz585179799NGybk92Ui2ec19W9ewXp2YnBQ+3biyICA9TG0ZjowtNf4f+J3kZD5pPWWfjj5h7jmBBakViRMwm5LCsS3KKPymxYDZoLCj4Y65H6oOxoNSgeEw4ZBmU3IhlBqOR2oavJ2QsLd6mj+ygoxbaPGiCZIrC5KWVYxJHLeGYXJUSkwYux3i+ur5PYsY7SxcmxA627kiXLhuSxqbuKlobGREqnG1z/23LthD+sm4dYt8yLSMYLykpiYyMpH8GBwfb6snQEXdd4/UNVyK69XeXddj1FIH9n/25XZvHoSPQEU/1OKt66uobb/zjn8Lhv333c4v7Ifv4Fu2bj8pHmgoOGD+0lXyzKi7/WJN8Pjsbm9wmb1LRTxsHnYjJ/NlrkdlRLUrc7r33P3kR4bzEeATjEWe7ufvyXf3mxxY33iwdsbyc3KcjzqkDs47YVQdmHZE0GXTE3rwG66wtfnXDIAhojgDWR3y4ySVr5KZPXulCpuQgNzAXInXhoHRJ0FjUsrhoT2ENz3K2YrIkz2k5HrE8qzBWsljgNIejGBrvmwSHNBqrKCymV9JxnlJOs1XTTI/PZtsNOXY5N8UaxUw+sc6K8YgP6whcBwGVEICOqKQh4AYI+DAB6IgPNx5cBwGVEICOqKQh4AYI+DAB6IgPNx5cBwGVEICOqKQh4AYI+DAB6IgPNx5cBwGVEICOqKQh4AYI+DAB6IgPNx5cBwGVEICOqKQh4AYI+DAB6IgPNx5cBwGVEICOqKQh4AYINIfA0eOnabF777mnOYVbrgx0pOVYwhIIeJbAZ6X7lq0sTJsyvl1b4SEpXntBR7yGHhWDAAuBI5Un5y7IHf2HETPTJ7HYaZGy0JEWwQgjIOBRAl9evDQjc0HMgD6Lsl6+6667PFq3UmXQEa83ARwAAdcI1DdenfrSa506hq98a97dd//KtcLuyQ0dcQ9XWAUB9xD49vr3qdPnPN66VfGGhbrHftXmgdv0AfHS5J5qHViFjngFOyoFgeYQ+PmX/6Uicvd/kF0b33rgvv9qjgn3lIGOuIcrrIJASxP4179upr0y74cffizelPN464da2jyTPegIEz4UBgHPEPj3v/89c+6iS5drd25YHB7SxjOVOl8LdMR5VsgJAl4joN9cdPiLE9vWLOzZNcJrTtiu2LefF6/OXS891syOnhdvckTpee7We1xy2aXPPbcqbno6uimnWMLRFlOmh9RbbGpjNGdrpxunnhfPO2nrQe0We47Kn34vLckbcfoh8pY1WiFTfKS+czAt3BCrEbYHpX9sXjVvVGKMpHfJIlJsZVOUCmexLyfBrpceUytUpAYCWTPGvzEzRXGbXisZNeuc6LnFB4D5LHSE4yPd9VINLe2MD1a7sivu2GJtSfaBr/Sn+ZjS55LiiME8TLDqedJtpeW9UOaeHd9kO5DLRg7WZy0/tJUjkg6alKNSuq5kAcqGQNLtY+xGJx86WcVu02fZ1t1SpnYB8u40Nd3u1bWDfABl0XzyAC3CgI44c3H6UB5XdMRKDhxfVwIJOzoi61DSgbHt3qygI9ILr0V0xHlltK8jvB3RmA3H+HAsz8l0RAmgiNaRoNtpI4uiVjqiXNBa4Bw0rvFasI5PoWALjkewzupDKgRXQUClBKAjKm0YuAUCPkQAOuJDjQVXQUClBKAjKm0YuAUCPkQAOuJDjQVXQUClBKAjKm0YuAUCPkQAOuJDjQVXQUClBKAjKm0YuAUCPkQAOuJDjQVXQUClBKAjKm0YuAUCPkQAOuJDjQVXQUClBKAjKm0YuAUCPkQAOuJDjQVXQUClBKAjKm0YuAUCPkQAOuJDjQVXQUClBKAjKm0YuAUCXiewr+Io9eHee+916Al0xCEiZAABLRJY+8GW1YUb5syZ065dO4fxQ0ccIkIGENAcASoiK/LXURFJT093JnjoiDOUkAcENETAVRGhaKAjGuofCBUEHBIQRCQnJ2fZsmXBli87ZaEjDsEiAwhohYBJRLKyslyKGTriEi5kBgG/JdBsEcG8xm/7BAIDAZcIsIgIdMQl1MgMAv5JgFFEoCP+2S0QFQg4T+CTXaXCwqqrayLSKmzuE67xLbidbwaXcrqyn57UsKNt3Ghe+xuyyQyItpu9n56TvmFfTgko+/vpmTPa2M1PoQWlzWfRA2SbgPJ9Q8GsaQdyRhHhfKc9W/aqq6tz6dpAZhAAAd8lMHv2bGsRcPWIwniEEqFScuPGDd9FA89BAAScIdDU1BQVFeVMTvt5lHWE3S4sgAAIaIcAvj+inbZGpCDgLgLQEXeRhV0Q0A4B6Ih22hqRgoC7CEBH3EUWdkFAOwSgI9ppa0QKAu4iAB1xF1nYBQHtEICOaKetESkIuIsAdMRdZGEXBLRDADqinbZGpCDgLgLQEXeRhV0Q0A4B6Ih22hqRgoC7CPx/0k39f31dmTsAAAAASUVORK5CYII=;" parent="1" vertex="1">
          <mxGeometry x="11" y="60" width="365" height="293" as="geometry" />
        </mxCell>
        <mxCell id="r4fg79JsZ78p1qMaYSxO-1" value="" style="endArrow=classic;html=1;rounded=0;" edge="1" parent="1" source="VVp5pExmb6sLRWtHkBHy-1" target="r4fg79JsZ78p1qMaYSxO-3">
          <mxGeometry width="50" height="50" relative="1" as="geometry">
            <mxPoint x="420" y="160" as="sourcePoint" />
            <mxPoint x="509" y="167" as="targetPoint" />
            <Array as="points">
              <mxPoint x="450" y="160" />
            </Array>
          </mxGeometry>
        </mxCell>
        <mxCell id="r4fg79JsZ78p1qMaYSxO-3" value="BDD" style="shape=cylinder3;whiteSpace=wrap;html=1;boundedLbl=1;backgroundOutline=1;size=15;" vertex="1" parent="1">
          <mxGeometry x="520" y="144" width="100" height="110" as="geometry" />
        </mxCell>
        <mxCell id="r4fg79JsZ78p1qMaYSxO-4" value="Requête client" style="text;html=1;strokeColor=none;fillColor=none;align=center;verticalAlign=middle;whiteSpace=wrap;rounded=0;" vertex="1" parent="1">
          <mxGeometry x="396" y="136" width="100" height="30" as="geometry" />
        </mxCell>
        <mxCell id="r4fg79JsZ78p1qMaYSxO-5" value="" style="endArrow=classic;html=1;rounded=0;" edge="1" parent="1" source="r4fg79JsZ78p1qMaYSxO-3" target="VVp5pExmb6sLRWtHkBHy-1">
          <mxGeometry width="50" height="50" relative="1" as="geometry">
            <mxPoint x="510" y="220" as="sourcePoint" />
            <mxPoint x="360" y="250" as="targetPoint" />
            <Array as="points">
              <mxPoint x="450" y="240" />
            </Array>
          </mxGeometry>
        </mxCell>
        <mxCell id="r4fg79JsZ78p1qMaYSxO-6" value="Reponse client" style="text;html=1;strokeColor=none;fillColor=none;align=center;verticalAlign=middle;whiteSpace=wrap;rounded=0;" vertex="1" parent="1">
          <mxGeometry x="397" y="234" width="100" height="30" as="geometry" />
        </mxCell>
      </root>
    </mxGraphModel>
  </diagram>
</mxfile>
